<?xml version="1.0" encoding="utf-8"?>
<!-- Generator: Adobe Illustrator 24.2.0, SVG Export Plug-In . SVG Version: 6.00 Build 0)  -->
<svg version="1.1" xmlns="http://www.w3.org/2000/svg" xmlns:xlink="http://www.w3.org/1999/xlink" x="0px" y="0px"
	 viewBox="0 0 500 500" style="enable-background:new 0 0 500 500;" xml:space="preserve">
<style type="text/css">
	.st0{fill:url(#SVGID_1_);}
	.st1{fill:url(#SVGID_2_);}
	.st2{fill:url(#SVGID_3_);}
	.st3{fill:none;}
	.st4{font-family:'Montserrat-Bold';}
	.st5{font-size:62px;}
	.st6{letter-spacing:4;}
	.st7{display:none;}
</style>
<g id="Background">
</g>
<g id="Objects">
	<g>
		<linearGradient id="SVGID_1_" gradientUnits="userSpaceOnUse" x1="359.1674" y1="84.7656" x2="177.254" y2="58.8897">
			<stop  offset="0" style="stop-color:#66F2D1"/>
			<stop  offset="1" style="stop-color:#154398"/>
		</linearGradient>
		<path class="st0" d="M364.6,46.56c0,0-17.57,42.39-37.05,51.89c-14.28,6.96-31.62,2.3-44.43,1.15c-1.34-0.19-2.71-0.38-4.07-0.52
			c-5.46-0.61-11.1-0.94-16.91-0.94c-28.98,0-54.34,7.97-68.4,19.92c-26.37-10.37-43.28-26.46-43.28-44.55
			c0-21.38,23.71-40.01,58.74-49.66c9.5-2.61,19.83-4.59,30.75-5.74c0.73-0.09,1.48-0.17,2.24-0.24c7.39-0.78,15.03-1.18,22.86-1.18
			c6.61,0,12.7,0.31,18.09,0.75c12.98,1.11,21.94,3.01,24.25,3.39C331.93,25.79,352.18,34.94,364.6,46.56z"/>
		<linearGradient id="SVGID_2_" gradientUnits="userSpaceOnUse" x1="125.2079" y1="307.0113" x2="299.2819" y2="358.7632">
			<stop  offset="0" style="stop-color:#66F2D1"/>
			<stop  offset="0.1311" style="stop-color:#5AD4C2"/>
			<stop  offset="0.4359" style="stop-color:#4093A1"/>
			<stop  offset="0.6928" style="stop-color:#2D6388"/>
			<stop  offset="0.8885" style="stop-color:#21467A"/>
			<stop  offset="1" style="stop-color:#1D3B74"/>
		</linearGradient>
		<path class="st1" d="M305.67,352.19c-4.61,12.04-12.94,21.9-23.76,29.17c-0.1,0.02-0.21,0.04-0.31,0.07v0.14
			c-16.66,3.64-34.6,5.62-53.3,5.62c-6.68,0-13.27-0.26-19.74-0.75v-0.05c-9.24-0.73-18.44-1.93-27.4-3.55
			c-0.59-0.11-1.15-0.21-1.74-0.33c-0.61-0.14-1.25-0.26-1.86-0.37c-2.99-0.57-5.93-1.2-8.82-1.89
			c-15.38-3.57-29.64-8.37-41.5-14.12c-0.02-0.02-0.02-0.02-0.02-0.02c-2.82-1.34-5.5-2.75-8.05-4.21l-6.16-3.57l7.01-27.36
			l0.33-1.25c0.05-0.16,0.09-0.35,0.12-0.52l0.64-2.47c5.74-20.42,23.17-33.52,44.43-33.52c6.6,0,15.22,2.68,16.68,3.11
			c18,5.55,39.94,8.82,63.61,8.82c20.23,0,39.19-2.38,55.52-6.54C310.17,316.06,312.26,334.95,305.67,352.19z"/>
		<path d="M281.92,381.36c-0.1,0.07-0.19,0.11-0.31,0.21v-0.14C281.7,381.4,281.82,381.38,281.92,381.36z"/>
		<linearGradient id="SVGID_3_" gradientUnits="userSpaceOnUse" x1="117.8167" y1="202.5116" x2="380.1253" y2="202.5116">
			<stop  offset="0" style="stop-color:#64C2ED"/>
			<stop  offset="1" style="stop-color:#154398"/>
		</linearGradient>
		<path class="st2" d="M380.13,271.32c0,54.17-38.25,96.66-98.21,110.04c10.82-7.27,19.15-17.13,23.76-29.17
			c15.01-39.31-15.05-87.27-67.16-107.17c-1.91-0.73-3.84-1.41-5.74-2.05c-0.09-0.03-0.16-0.05-0.23-0.07
			c-2.73-1.01-5.65-2.05-8.73-3.08c-49.35-16.58-106-44.13-106-110.16c0-51.87,35.47-91.91,93.18-106
			c-13.03,10.4-21.64,23.71-23.85,39c-4.56,31.59,19.36,62.81,57.63,80.78c0.02,0.02,0.07,0.05,0.12,0.07
			c9.1,4.59,21.17,9.64,36.72,15.5C350.61,183.36,380.13,216.98,380.13,271.32z"/>
	</g>
	<g>
		<rect x="297.44" y="33.16" class="st3" width="2.85" height="0"/>
		<rect x="288.88" y="41.73" class="st3" width="12.37" height="0"/>
		<rect x="465.94" y="-110.33" class="st3" width="5.07" height="3.17"/>
		<text transform="matrix(1 0 0 1 106.5282 474.5746)" class="st4 st5 st6">SOLYAG</text>
	</g>
</g>
<g id="Designed_by_Freepik" class="st7">
</g>
</svg>
