<?xml version="1.0"?>
<svg xmlns="http://www.w3.org/2000/svg" id="Layer_1_1_" enable-background="new 0 0 64 64" height="512px" viewBox="0 0 64 64" width="512px"><g><path d="m57 2h-50c-2.757 0-5 2.243-5 5v36c0 2.757 2.243 5 5 5h17.656l-2.4 8h-4.256c-.553 0-1 .448-1 1 0 2.757 2.243 5 5 5h20c2.757 0 5-2.243 5-5 0-.552-.447-1-1-1h-4.256l-2.4-8h17.656c2.757 0 5-2.243 5-5v-36c0-2.757-2.243-5-5-5zm-50 2h50c1.654 0 3 1.346 3 3v31h-56v-12h15v1c0 1.654 1.346 3 3 3h19.08c.488 3.387 3.401 6 6.92 6 3.859 0 7-3.14 7-7 0-3.519-2.614-6.432-6-6.92v-9.08c0-1.654-1.346-3-3-3h-17.764l-7.789-3.895c-.224-.111-.481-.137-.722-.067l-6.865 1.962h-8.86v-1c0-1.654 1.346-3 3-3zm34.08 24h-19.08c-.552 0-1-.449-1-1v-1h3.5c1.93 0 3.5-1.57 3.5-3.5 0-.539-.133-1.044-.351-1.5h19.351v1.08c-3.059.441-5.479 2.861-5.92 5.92zm-20.08-11h26v2h-26zm27 7c2.757 0 5 2.243 5 5s-2.243 5-5 5-5-2.243-5-5 2.243-5 5-5zm-1-9h-26v-2c0-.551.448-1 1-1h24c.552 0 1 .449 1 1zm-25-5c-1.654 0-3 1.346-3 3v6h-2v2h3 4.5c.827 0 1.5.673 1.5 1.5s-.673 1.5-1.5 1.5h-20.5v-14h9c.093 0 .186-.013.274-.039l6.626-1.893 3.864 1.932zm20 50h-20c-1.304 0-2.416-.836-2.829-2h25.658c-.413 1.164-1.525 2-2.829 2zm-2.344-4h-15.312l2.4-8h10.512zm17.344-10h-50c-1.654 0-3-1.346-3-3v-3h56v3c0 1.654-1.346 3-3 3z" data-original="#000000" class="active-path" data-old_color="#000000" fill="#FFFFFF"/><path d="m47 32c.256 0 .512-.098.707-.293l4-4-1.414-1.414-3.293 3.293-1.293-1.293-1.414 1.414 2 2c.195.195.451.293.707.293z" data-original="#000000" class="active-path" data-old_color="#000000" fill="#FFFFFF"/><path d="m29 23h2v2h-2z" data-original="#000000" class="active-path" data-old_color="#000000" fill="#FFFFFF"/><path d="m33 23h2v2h-2z" data-original="#000000" class="active-path" data-old_color="#000000" fill="#FFFFFF"/><path d="m37 23h2v2h-2z" data-original="#000000" class="active-path" data-old_color="#000000" fill="#FFFFFF"/></g> </svg>
