<?xml version="1.0"?>
<svg xmlns="http://www.w3.org/2000/svg" id="Layer_1" enable-background="new 0 0 512 512" height="512px" viewBox="0 0 512 512" width="512px" class=""><g><g><path d="m350 296h-320c-11.046 0-20-8.954-20-20v-180c0-11.046 8.954-20 20-20h320c11.046 0 20 8.954 20 20v180c0 11.046-8.954 20-20 20z" fill="#ff9eb1" data-original="#FF9EB1" class="" data-old_color="#ff9eb1" style="fill:#CE1F41"/><path d="m10 126h360v70h-360z" fill="#ff7d97" data-original="#FF7D97" class="" data-old_color="#ff7d97" style="fill:#B00F30"/><path d="m482 386h-320c-11.046 0-20-8.954-20-20v-180c0-11.046 8.954-20 20-20h320c11.046 0 20 8.954 20 20v180c0 11.046-8.954 20-20 20z" fill="#ffbecb" data-original="#FFBECB" class="active-path" data-old_color="#ffbecb" style="fill:#D40E36"/><circle cx="392" cy="236" fill="#ffcd69" r="30" data-original="#FFCD69" class=""/><circle cx="432" cy="236" fill="#ffee80" r="30" data-original="#FFEE80"/><g><path d="m228 266h-36c-5.523 0-10-4.478-10-10 0-5.523 4.477-10 10-10h36c5.523 0 10 4.477 10 10 0 5.522-4.477 10-10 10z" fill="#ffdfe5" data-original="#FFDFE5"/></g><g><path d="m352 346h-160c-5.523 0-10-4.478-10-10s4.477-10 10-10h160c5.523 0 10 4.478 10 10s-4.477 10-10 10z" fill="#fff" data-original="#FFF" class=""/></g><g><path d="m262 226h-70c-5.523 0-10-4.477-10-10s4.477-10 10-10h70c5.523 0 10 4.477 10 10s-4.477 10-10 10z" fill="#ffdfe5" data-original="#FFDFE5"/></g><circle cx="442" cy="376" fill="#fff" r="60" data-original="#FFF" class=""/><path d="m482 156h-102v-60c0-16.542-13.458-30-30-30h-320c-16.542 0-30 13.458-30 30v180c0 16.542 13.458 30 30 30h102v60c0 16.542 13.458 30 30 30h212.927c3.262 10.921 9.123 20.725 16.863 28.703.222.275.458.541.713.795.255.255.521.491.795.713 12.61 12.234 29.786 19.789 48.702 19.789 38.598 0 70-31.402 70-70v-190c0-16.542-13.458-30-30-30zm-452 130c-5.514 0-10-4.486-10-10v-180c0-5.514 4.486-10 10-10h320c5.514 0 10 4.486 10 10v60h-198c-16.542 0-30 13.458-30 30v100zm132 90c-5.514 0-10-4.486-10-10v-180c0-5.514 4.486-10 10-10h320c5.514 0 10 4.486 10 10v141.059c-.162-.189-.324-.378-.503-.557-.255-.255-.521-.491-.795-.712-12.61-12.235-29.786-19.79-48.702-19.79-38.598 0-70 31.402-70 70zm238.305 27.553c-5.242-7.906-8.305-17.377-8.305-27.553 0-27.57 22.43-50 50-50 10.176 0 19.647 3.063 27.552 8.305zm41.695 22.447c-10.176 0-19.647-3.063-27.552-8.305l69.248-69.248c5.241 7.906 8.304 17.377 8.304 27.553 0 27.57-22.43 50-50 50z" fill="#ff5d7d" data-original="#FF5D7D" class="" style="fill:#F60031" data-old_color="#ff5d7d"/></g></g> </svg>
