<?xml version="1.0"?>
<svg xmlns="http://www.w3.org/2000/svg" xmlns:xlink="http://www.w3.org/1999/xlink" version="1.1" id="Capa_1" x="0px" y="0px" viewBox="0 0 511.999 511.999" style="enable-background:new 0 0 511.999 511.999;" xml:space="preserve" width="512px" height="512px"><g><g>
	<g>
		<path d="M83.617,256.002c0-6.305-2.802-12.61-7.703-16.81c-4.202-4.201-9.805-5.601-18.209-5.601h-3.501v45.517h4.202    c8.404,0,14.006-2.099,18.209-5.599C81.518,269.303,84.318,262.303,83.617,256.002z" data-original="#000000" class="active-path" data-old_color="#000000" fill="#FFFFFF"/>
	</g>
</g><g>
	<g>
		<path d="M442.16,232.19h-4.201v21.006h4.201c8.404,0,13.308-3.499,13.308-10.499C455.468,235.69,450.565,232.19,442.16,232.19z" data-original="#000000" class="active-path" data-old_color="#000000" fill="#FFFFFF"/>
	</g>
</g><g>
	<g>
		<path d="M503.915,133.4c4.466,0,8.084-3.62,8.084-8.084v-10.979c0-20.619-16.774-37.394-37.393-37.394H37.393    C16.775,76.942,0,93.716,0,114.336v283.326c0,20.62,16.775,37.395,37.393,37.395h437.214c20.619,0,37.393-16.775,37.392-37.395    V151.545c0-4.466-3.619-8.084-8.084-8.084s-8.084,3.619-8.084,8.084v246.117c0,11.705-9.522,21.227-21.225,21.227H37.393    c-11.703,0-21.225-9.522-21.225-21.227V114.336c0-11.704,9.522-21.226,21.225-21.226h437.212c11.703,0,21.225,9.522,21.225,21.226    v10.979C495.831,129.78,499.449,133.4,503.915,133.4z" data-original="#000000" class="active-path" data-old_color="#000000" fill="#FFFFFF"/>
	</g>
</g><g>
	<g>
		<path d="M228.11,271.755v-0.346C227.992,271.528,228.051,271.642,228.11,271.755z" data-original="#000000" class="active-path" data-old_color="#000000" fill="#FFFFFF"/>
	</g>
</g><g>
	<g>
		<path d="M487.975,280.565l-10.914-14.435c5.509-6.241,8.581-14.542,8.581-24.135c0-21.819-16.347-36.479-40.678-36.479h-20.31    c-1.583,0-3.108,0.238-4.553,0.661c-1.445-0.424-2.97-0.661-4.553-0.661h-38.513c-0.958,0-1.89,0.099-2.8,0.259    c-0.908-0.159-1.836-0.258-2.787-0.259c-0.002,0-0.002,0-0.002,0c-0.004,0-0.006,0-0.011,0h-0.004h-14.704    c-6.567,0-12.48,3.971-14.967,10.047l-1.32,3.229c-0.928,1.199-1.694,2.537-2.264,3.984l-0.379,0.966l-3.145-7.985    c-2.436-6.18-8.402-10.242-15.044-10.242h-14.704c-3.616,0-7.072,1.215-9.863,3.364c-7.159-3.562-15.12-5.46-23.4-5.46h-0.053    c-0.101-0.001-0.201-0.002-0.301-0.002c-11.195,0-21.812,3.424-30.657,9.751c-1.456-1.873-3.325-3.443-5.527-4.544    c-8.173-4.086-15.585-5.908-24.036-5.908c-0.385,0-0.768,0.014-1.151,0.041c-11.116,0.793-21.929,5.009-30.775,11.947    c-0.444,0.259-0.877,0.544-1.301,0.848c-8.528-7.021-18.796-10.734-29.798-10.734c-7.053,0-13.829,1.799-19.698,5.141    c-2.898-2.748-6.805-4.443-11.112-4.443H103.93c-5.807,0-10.882,3.071-13.733,7.665c-8.437-5.036-18.52-7.665-29.685-7.665H40.899    c-8.928,0-16.168,7.239-16.168,16.168v68.631c0,8.929,7.24,16.168,16.168,16.168h19.61c11.357,0,21.098-2.561,29.613-7.784    c2.838,4.661,7.949,7.785,13.807,7.785h13.306c3.096,0,5.979-0.886,8.438-2.396c6.242,3.45,13.246,5.193,20.973,5.193    c10.912,0,20.933-3.761,28.215-10.589c0.877-0.825,1.707-1.69,2.493-2.588c9.067,7.386,20.776,11.776,33.718,11.776    c0.113,0,0.227-0.001,0.341-0.003c0.12,0.002,0.24,0.003,0.358,0.003c9.52,0,17.162-2.828,23.381-5.596    c2.03-0.903,3.801-2.199,5.257-3.765c8.68,6.321,19.35,10.063,30.884,10.063c14.143,0,27.374-5.443,37.259-15.327    c1.981-1.981,3.775-4.101,5.389-6.332l4.697,11.57c2.476,6.098,8.4,10.087,14.981,10.087h7.703c6.482,0,12.337-3.871,14.876-9.835    l4.672-10.973v2.541c-0.004,8.929,7.234,16.169,16.165,16.169h37.817h0.697c1.583,0,3.108-0.238,4.553-0.661    c1.445,0.424,2.97,0.661,4.553,0.661h13.306c4.009,0,7.678-1.459,10.503-3.876c2.895,2.473,6.609,3.876,10.503,3.876h16.109    c6.136,0,11.744-3.473,14.476-8.965C492.284,292.026,491.674,285.459,487.975,280.565z M85.017,282.608    c-6.304,4.903-14.004,7.706-24.507,7.706H40.899v-68.631h19.61c0.705,0,1.404,0.014,2.094,0.042    c0.192,0.008,0.378,0.024,0.57,0.033c0.497,0.025,0.993,0.051,1.48,0.091c0.201,0.016,0.395,0.041,0.594,0.06    c0.472,0.044,0.945,0.087,1.411,0.146c0.185,0.023,0.367,0.054,0.552,0.079c0.472,0.065,0.945,0.128,1.409,0.206    c0.154,0.026,0.304,0.059,0.458,0.086c0.487,0.087,0.973,0.176,1.452,0.279c0.128,0.027,0.252,0.06,0.379,0.088    c0.497,0.112,0.992,0.225,1.478,0.352c0.106,0.028,0.208,0.061,0.314,0.089c0.503,0.136,1.002,0.277,1.493,0.429    c0.078,0.025,0.154,0.053,0.232,0.078c0.514,0.164,1.021,0.335,1.52,0.516c0.055,0.02,0.11,0.043,0.164,0.064    c0.517,0.193,1.029,0.392,1.531,0.605c0.037,0.016,0.071,0.032,0.11,0.048c0.516,0.22,1.025,0.45,1.526,0.691    c0.023,0.012,0.044,0.023,0.068,0.034c0.512,0.248,1.014,0.507,1.509,0.776c0.009,0.004,0.017,0.01,0.025,0.015    c0.505,0.277,1,0.564,1.486,0.862c0.002,0.002,0.004,0.004,0.009,0.005c1.475,0.909,2.854,1.917,4.137,3.018    c0.002,0.001,0.002,0.002,0.004,0.003c0.426,0.365,0.84,0.742,1.242,1.126c0.002,0.002,0.004,0.003,0.006,0.005    c6.293,6.024,9.863,14.489,9.863,24.489C97.623,266.505,92.718,276.307,85.017,282.608z M117.235,262.542l-0.001,27.774h-6.745    h-6.56v-4.404V225.45v-3.765h11.84h1.465V261.8h0.001V262.542z M166.455,283.836c-0.294,0.415-0.608,0.814-0.932,1.204    c-0.177,0.212-0.359,0.419-0.543,0.624c-0.275,0.304-0.558,0.598-0.85,0.885c-0.234,0.236-0.479,0.464-0.729,0.686    c-0.294,0.263-0.598,0.52-0.908,0.766c-0.196,0.156-0.389,0.31-0.59,0.459c-0.44,0.326-0.895,0.635-1.364,0.928    c-0.19,0.119-0.385,0.231-0.578,0.343c-0.413,0.241-0.832,0.471-1.263,0.687c-0.148,0.073-0.288,0.154-0.438,0.224    c-0.552,0.263-1.124,0.499-1.705,0.721c-0.183,0.07-0.369,0.139-0.554,0.205c-0.605,0.214-1.221,0.413-1.857,0.584    c-0.122,0.033-0.25,0.06-0.375,0.093c-0.591,0.15-1.193,0.28-1.807,0.391c-0.141,0.025-0.278,0.055-0.419,0.078    c-0.694,0.114-1.403,0.204-2.125,0.268c-0.157,0.014-0.318,0.025-0.476,0.037c-0.755,0.056-1.519,0.094-2.3,0.094    c-0.614,0-1.219-0.017-1.817-0.05c-0.066-0.004-0.128-0.013-0.194-0.017c-0.53-0.032-1.057-0.073-1.576-0.133    c-0.032-0.004-0.066-0.011-0.098-0.015c-2.872-0.34-5.551-1.087-8.058-2.268c-0.001,0-0.001-0.001-0.001-0.001    c-0.507-0.238-1.005-0.495-1.497-0.769c0,0-0.002,0-0.002-0.001c-3.931-2.188-7.426-5.509-10.571-10.051l8.404-8.404    c0.6,1.2,1.334,2.296,2.171,3.29c0.759,0.901,1.606,1.712,2.529,2.422c0.015,0.013,0.031,0.025,0.046,0.037    c0.903,0.692,1.878,1.284,2.905,1.774c0.042,0.019,0.083,0.04,0.124,0.06c0.497,0.231,1.005,0.434,1.524,0.614    c0.068,0.024,0.135,0.043,0.203,0.066c0.482,0.16,0.972,0.297,1.471,0.414c0.054,0.013,0.106,0.027,0.159,0.04    c0.517,0.113,1.047,0.198,1.581,0.262c0.115,0.014,0.232,0.025,0.347,0.037c0.543,0.053,1.091,0.089,1.646,0.089    c6.306,0,10.505-4.203,10.505-9.807c0-2.798-1.404-5.602-4.199-7c-1.404-1.401-3.505-2.103-9.107-4.201    c-0.68-0.265-1.328-0.527-1.96-0.789c-0.19-0.078-0.377-0.156-0.562-0.236c-0.548-0.231-1.08-0.462-1.59-0.693    c-0.232-0.106-0.453-0.21-0.678-0.316c-0.335-0.156-0.665-0.314-0.983-0.472c-0.263-0.129-0.524-0.26-0.777-0.39    c-0.249-0.129-0.486-0.259-0.724-0.388c-0.429-0.234-0.842-0.47-1.237-0.707c-0.154-0.091-0.305-0.183-0.453-0.275    c-5.714-3.563-7.844-7.695-7.844-14.643c0-7.225,4.091-13.27,10.183-16.662c0.02-0.012,0.042-0.022,0.064-0.033    c0.528-0.294,1.07-0.568,1.63-0.82c0.066-0.029,0.135-0.056,0.201-0.085c0.52-0.227,1.046-0.443,1.587-0.634    c0.134-0.047,0.274-0.085,0.41-0.131c0.484-0.16,0.97-0.317,1.471-0.447c0.227-0.06,0.462-0.102,0.693-0.156    c0.425-0.097,0.846-0.199,1.281-0.274c0.358-0.063,0.727-0.099,1.093-0.146c0.322-0.041,0.64-0.095,0.966-0.123    c0.703-0.061,1.416-0.094,2.136-0.094c0.846,0,1.68,0.04,2.507,0.107c0.07,0.005,0.141,0.009,0.21,0.015    c0.791,0.069,1.57,0.172,2.343,0.3c0.099,0.016,0.197,0.03,0.294,0.047c0.758,0.134,1.505,0.297,2.244,0.486    c0.1,0.025,0.201,0.051,0.301,0.078c0.739,0.197,1.467,0.422,2.185,0.673c0.086,0.03,0.172,0.063,0.259,0.094    c0.731,0.263,1.449,0.552,2.156,0.87c0.057,0.026,0.113,0.054,0.171,0.08c0.732,0.336,1.452,0.696,2.157,1.089    c0.011,0.008,0.023,0.015,0.033,0.022c1.928,1.078,3.751,2.363,5.444,3.844l-5.869,7.628l-1.135,1.475    c-3.501-4.202-7.002-5.603-11.205-5.603c-5.602,0-9.805,3.5-9.805,7.702c0,3.5,2.103,5.603,10.505,8.403    c0.689,0.25,1.345,0.499,1.991,0.747c0.113,0.043,0.229,0.087,0.34,0.132c0.651,0.253,1.283,0.508,1.888,0.76    c0.004,0.001,0.006,0.002,0.01,0.004c0.643,0.267,1.258,0.537,1.854,0.806c0.01,0.004,0.019,0.01,0.029,0.014    c0.598,0.272,1.173,0.544,1.722,0.82c0,0,0.001,0,0.002,0c9.052,4.519,11.768,9.563,11.768,19.125    C170.444,275.787,169.004,280.251,166.455,283.836z M228.579,287.513h-0.002c-6.301,2.804-11.206,4.201-16.809,4.201    c-0.135,0-0.269-0.008-0.406-0.01c-0.097,0.001-0.194,0.01-0.292,0.01c-0.636,0-1.268-0.015-1.895-0.045    c-0.16-0.008-0.316-0.024-0.475-0.033c-0.466-0.027-0.93-0.056-1.392-0.1c-0.198-0.019-0.392-0.049-0.59-0.07    c-0.418-0.046-0.835-0.091-1.248-0.15c-0.177-0.025-0.351-0.061-0.526-0.088c-0.429-0.068-0.859-0.135-1.283-0.217    c-0.138-0.027-0.273-0.061-0.41-0.089c-0.457-0.094-0.914-0.19-1.365-0.299c-0.133-0.032-0.261-0.072-0.391-0.106    c-0.453-0.115-0.904-0.233-1.348-0.364c-0.109-0.032-0.213-0.07-0.321-0.104c-0.464-0.142-0.926-0.288-1.381-0.446    c-0.082-0.028-0.16-0.061-0.24-0.089c-0.478-0.17-0.954-0.347-1.423-0.536c-0.061-0.025-0.122-0.055-0.184-0.08    c-0.483-0.198-0.964-0.404-1.435-0.622c-0.042-0.019-0.082-0.04-0.123-0.06c-0.49-0.229-0.975-0.467-1.454-0.715    c-0.017-0.009-0.031-0.018-0.048-0.027c-11.309-5.928-18.886-17.545-18.886-31.469c0-4.044,0.718-7.938,2.025-11.584    c0.009-0.022,0.017-0.042,0.023-0.065l0.001-0.001c1.297-3.594,3.167-6.947,5.496-9.965c0.632-0.884,1.307-1.728,2.004-2.541    c0,0,0.001-0.001,0.002-0.001c0.46-0.537,0.932-1.058,1.419-1.561c0.031-0.031,0.061-0.066,0.092-0.097    c0.504-0.517,1.095-0.943,1.625-1.421c6.437-5.648,14.831-9.245,23.732-9.881c6.301,0,11.206,1.402,16.804,4.201v3.089v13.017    c-1.678-1.679-3.293-3.037-4.903-4.125c-0.912-0.615-1.822-1.139-2.739-1.586c-0.049-0.023-0.097-0.048-0.147-0.071    c-0.898-0.427-1.803-0.775-2.726-1.053c-0.074-0.023-0.149-0.042-0.222-0.065c-0.406-0.115-0.814-0.219-1.227-0.308    c-0.06-0.014-0.12-0.029-0.18-0.042c-0.461-0.096-0.928-0.175-1.402-0.24c-0.081-0.011-0.164-0.018-0.247-0.028    c-0.387-0.048-0.781-0.085-1.179-0.114c-0.126-0.009-0.252-0.018-0.379-0.025c-0.478-0.026-0.961-0.044-1.455-0.044    c-5.838,0-10.913,2.417-14.853,6.158c-4.203,4.905-6.855,10.647-6.855,17.653c0,13.917,9.69,23.678,22.872,23.797    c0.407-0.009,0.811-0.032,1.213-0.066c0.108-0.009,0.215-0.021,0.322-0.03c0.317-0.03,0.632-0.068,0.945-0.114    c0.091-0.014,0.183-0.026,0.274-0.041c0.821-0.134,1.634-0.322,2.44-0.57c0.044-0.014,0.088-0.029,0.133-0.043    c0.383-0.122,0.764-0.255,1.146-0.405c0.027-0.011,0.056-0.022,0.084-0.031c0.839-0.335,1.676-0.736,2.516-1.213    c0.006-0.002,0.011-0.005,0.015-0.009c0.418-0.237,0.835-0.493,1.257-0.768c1.725-1.13,3.709-2.575,5.534-4.401l0.011,0.369    c-0.004-0.008-0.007-0.015-0.011-0.023v0.334c0.01-0.01,0.012-0.019,0.02-0.029l0.447,14.548V287.513z M218.762,258.055    c-0.823,0.562-1.604,1.201-2.326,1.923c-2.583,2.586-3.711,2.898-4.331,2.945c-5.714-0.194-6.577-4.841-6.577-7.623    c0-1.745,0.377-3.798,3.11-6.985c0.046-0.056,0.093-0.112,0.139-0.166c0.709-0.327,1.476-0.49,2.293-0.49    c1.449,0,2.406,0,5.368,2.963c0.742,0.742,1.545,1.392,2.392,1.963c-0.07,1.133-0.12,2.271-0.12,3.417    C218.709,256.69,218.736,257.373,218.762,258.055z M305.964,267.273c-0.001,0.002-0.002,0.004-0.002,0.006    c-0.419,1.313-0.912,2.59-1.469,3.832c-0.04,0.086-0.078,0.175-0.117,0.261c-0.164,0.36-0.337,0.716-0.514,1.069    c-0.049,0.099-0.099,0.198-0.15,0.295c-0.183,0.359-0.369,0.715-0.564,1.065c-0.019,0.036-0.04,0.07-0.059,0.106    c-0.635,1.136-1.328,2.231-2.078,3.287c-0.068,0.095-0.133,0.191-0.203,0.286c-0.214,0.296-0.433,0.59-0.659,0.878    c-0.089,0.116-0.181,0.233-0.272,0.348c-0.224,0.282-0.451,0.562-0.682,0.838c-0.082,0.099-0.168,0.196-0.252,0.294    c-0.76,0.883-1.562,1.728-2.404,2.534c-0.135,0.128-0.267,0.259-0.404,0.385c-0.23,0.212-0.464,0.421-0.698,0.627    c-0.16,0.141-0.321,0.281-0.484,0.419c-0.23,0.196-0.461,0.389-0.695,0.579c-0.179,0.144-0.362,0.285-0.544,0.426    c-0.23,0.179-0.457,0.358-0.691,0.53c-0.383,0.282-0.772,0.558-1.165,0.826c-0.21,0.143-0.427,0.278-0.642,0.417    c-0.234,0.152-0.467,0.303-0.703,0.448c-0.219,0.135-0.441,0.265-0.663,0.395c-0.245,0.143-0.49,0.283-0.737,0.421    c-0.219,0.121-0.435,0.241-0.656,0.357c-0.276,0.146-0.554,0.286-0.833,0.424c-0.198,0.099-0.393,0.198-0.594,0.293    c-0.465,0.219-0.932,0.429-1.407,0.63c-0.152,0.064-0.305,0.12-0.457,0.182c-0.351,0.142-0.705,0.282-1.063,0.415    c-0.201,0.073-0.4,0.142-0.603,0.212c-0.321,0.111-0.645,0.22-0.97,0.324c-0.204,0.065-0.411,0.128-0.617,0.191    c-0.349,0.104-0.703,0.203-1.056,0.295c-0.179,0.047-0.357,0.098-0.537,0.143c-0.529,0.132-1.063,0.254-1.601,0.364    c-0.077,0.015-0.156,0.027-0.233,0.042c-0.472,0.092-0.945,0.176-1.423,0.25c-0.185,0.028-0.371,0.053-0.557,0.079    c-0.38,0.053-0.761,0.101-1.146,0.143c-0.202,0.022-0.402,0.042-0.606,0.06c-0.392,0.037-0.788,0.065-1.186,0.088    c-0.181,0.012-0.36,0.024-0.541,0.032c-0.575,0.026-1.151,0.043-1.734,0.043c-0.642,0-1.281-0.018-1.913-0.051    c-0.196-0.01-0.385-0.03-0.579-0.044c-0.44-0.029-0.878-0.059-1.314-0.105c-0.219-0.023-0.433-0.056-0.651-0.082    c-0.407-0.051-0.815-0.099-1.217-0.162c-0.219-0.033-0.432-0.078-0.649-0.115c-0.4-0.07-0.798-0.139-1.193-0.222    c-0.206-0.043-0.411-0.095-0.617-0.142c-0.4-0.092-0.8-0.183-1.195-0.289c-0.192-0.051-0.382-0.109-0.57-0.162    c-0.406-0.113-0.811-0.231-1.211-0.359c-0.174-0.056-0.345-0.116-0.517-0.176c-0.413-0.138-0.823-0.28-1.228-0.433    c-0.156-0.059-0.31-0.122-0.466-0.183c-0.419-0.164-0.833-0.333-1.244-0.514c-0.137-0.059-0.272-0.122-0.409-0.184    c-0.426-0.192-0.846-0.389-1.263-0.598c-0.115-0.058-0.232-0.118-0.347-0.178c-0.431-0.221-0.859-0.449-1.281-0.688    c-0.097-0.055-0.192-0.111-0.289-0.165c-0.435-0.252-0.868-0.512-1.292-0.781c-0.078-0.05-0.156-0.099-0.232-0.15    c-0.44-0.283-0.874-0.574-1.301-0.877c-0.059-0.041-0.117-0.083-0.177-0.125c-0.442-0.316-0.876-0.641-1.301-0.975    c-0.044-0.033-0.086-0.068-0.128-0.101c-0.442-0.349-0.874-0.708-1.299-1.078c-0.025-0.023-0.051-0.044-0.076-0.066    c-0.438-0.383-0.868-0.776-1.285-1.179c-0.014-0.013-0.026-0.026-0.039-0.038c-0.429-0.415-0.85-0.84-1.259-1.275    c-0.002-0.002-0.003-0.003-0.004-0.005c-6.003-6.394-9.72-14.954-9.854-24.384c-0.003-0.176-0.014-0.348-0.014-0.525    c0-0.766,0.031-1.525,0.075-2.279c0-0.001,0-0.001,0-0.002c0.51-8.485,3.842-16.129,9.089-22.021l0.002-0.001    c2.067-2.322,4.43-4.373,7.035-6.094c0.045-0.029,0.091-0.057,0.136-0.086c0.462-0.302,0.929-0.594,1.406-0.876    c0.108-0.064,0.217-0.122,0.324-0.185c0.417-0.24,0.838-0.475,1.268-0.7c0.148-0.077,0.296-0.151,0.444-0.226    c0.394-0.201,0.791-0.393,1.194-0.58c0.178-0.082,0.357-0.159,0.535-0.239c0.382-0.168,0.765-0.332,1.152-0.487    c0.201-0.08,0.4-0.157,0.603-0.235c0.373-0.142,0.749-0.278,1.131-0.409c0.217-0.074,0.435-0.149,0.656-0.219    c0.369-0.119,0.742-0.231,1.116-0.338c0.234-0.068,0.468-0.135,0.703-0.197c0.371-0.098,0.743-0.188,1.118-0.274    c0.242-0.057,0.486-0.114,0.731-0.166c0.377-0.08,0.758-0.149,1.14-0.216c0.247-0.044,0.49-0.092,0.739-0.13    c0.393-0.061,0.79-0.111,1.188-0.158c0.243-0.029,0.481-0.066,0.724-0.091c0.431-0.044,0.87-0.074,1.305-0.106    c0.212-0.014,0.421-0.036,0.634-0.046c0.651-0.033,1.305-0.053,1.964-0.053c0.046,0,0.091,0.003,0.135,0.003    c0.073,0,0.146-0.001,0.219-0.001c0.133,0,0.263,0.011,0.395,0.012c0.517,0.006,1.033,0.021,1.549,0.047    c0.225,0.012,0.448,0.028,0.674,0.044c0.486,0.035,0.972,0.079,1.456,0.133c0.197,0.022,0.393,0.042,0.59,0.068    c1.383,0.177,2.758,0.43,4.115,0.764c0.082,0.021,0.162,0.043,0.244,0.065c0.613,0.156,1.224,0.329,1.83,0.516    c0.104,0.032,0.206,0.065,0.309,0.098c0.65,0.207,1.297,0.432,1.938,0.678c0.016,0.006,0.032,0.012,0.047,0.018    c1.394,0.537,2.759,1.163,4.088,1.878c0.004,0.003,0.01,0.005,0.015,0.008c0,0,0,0,0,0.001c2.989,1.609,5.797,3.659,8.307,6.171    c7.042,7.043,10.541,16.388,10.501,25.72c0,0.066,0.004,0.129,0.004,0.195C307.708,259.948,307.092,263.732,305.964,267.273z     M341.32,292.413h-7.703l-28.71-70.728h6.509h8.194l18.209,46.221l15.859-38.991l3.05-7.231h4.139h10.564L341.32,292.413z     M415.549,233.59h-7.062h-17.445v14.705h17.445h6.366v11.91h-6.366h-17.445v6.3v12.603h12.604h4.84h7.063v11.207h-0.697h-6.366    h-31.451v-37.818v-2.699v-28.114h10.567h20.884h7.063V233.59z M458.966,290.316l-18.903-27.315h-2.103v27.314h-6.242h-7.063    v-68.631h7.063h13.246c15.404,0,24.509,7.707,24.509,20.311c0,10.502-5.604,17.507-16.105,19.606l21.708,28.715H458.966z" data-original="#000000" class="active-path" data-old_color="#000000" fill="#FFFFFF"/>
	</g>
</g></g> </svg>
